<?xml version="1.0" standalone="no"?>
<!DOCTYPE svg PUBLIC "-//W3C//DTD SVG 20010904//EN"
 "http://www.w3.org/TR/2001/REC-SVG-20010904/DTD/svg10.dtd">
<svg version="1.0" xmlns="http://www.w3.org/2000/svg"
 width="700.000000pt" height="700.000000pt" viewBox="0 0 700.000000 700.000000"
 preserveAspectRatio="xMidYMid meet">
<metadata>
Created by potrace 1.14, written by Peter Selinger 2001-2017
</metadata>
<g transform="translate(0.000000,700.000000) scale(0.100000,-0.100000)"
fill="#000000" stroke="none">
<path d="M3280 6994 c-19 -2 -84 -9 -145 -14 -578 -56 -1180 -283 -1660 -625
-237 -169 -531 -446 -709 -670 -416 -521 -673 -1147 -748 -1820 -17 -155 -17
-575 0 -730 52 -469 198 -931 418 -1327 290 -523 731 -983 1239 -1294 439
-269 920 -432 1460 -496 145 -17 576 -17 730 0 822 91 1556 447 2131 1034 203
206 348 390 487 618 274 449 433 916 499 1465 16 136 16 592 0 730 -86 725
-352 1347 -803 1885 -122 145 -351 370 -494 484 -510 407 -1117 661 -1775 742
-117 15 -553 27 -630 18z m-201 -3142 l-4 -578 76 98 c41 53 164 194 273 312
l198 216 204 0 c112 0 204 -4 204 -9 0 -5 -119 -138 -265 -297 -145 -159 -263
-294 -260 -301 2 -6 127 -177 277 -380 151 -202 278 -374 282 -380 6 -10 -38
-13 -208 -13 l-214 0 -192 270 c-105 148 -195 272 -201 276 -9 5 -144 -95
-161 -120 -4 -6 -8 -104 -8 -218 l0 -208 -185 0 -185 0 0 955 0 955 186 0 186
0 -3 -578z m1570 336 c0 -134 -4 -292 -8 -353 -5 -60 -7 -112 -5 -113 1 -2 31
25 66 61 35 35 82 74 105 86 138 70 330 67 465 -6 66 -36 156 -135 195 -214
129 -264 116 -706 -28 -930 -16 -26 -53 -69 -83 -97 -93 -88 -184 -122 -332
-122 -143 0 -231 32 -328 120 -30 29 -61 50 -67 48 -6 -2 -24 -35 -39 -73
l-28 -70 -146 -3 -146 -3 0 956 0 955 190 0 190 0 -1 -242z m-2470 -297 c67
-17 205 -65 219 -76 2 -2 -22 -63 -53 -137 l-56 -135 -101 38 c-129 49 -196
62 -296 58 -100 -5 -135 -26 -140 -84 -5 -63 49 -102 265 -191 272 -112 364
-198 393 -367 24 -134 -20 -277 -111 -362 -103 -97 -241 -135 -481 -135 -162
1 -267 15 -373 50 l-65 22 0 154 c0 85 1 154 3 154 2 0 31 -11 65 -25 126 -51
258 -79 382 -79 135 -1 183 15 206 70 32 76 -12 129 -165 202 -310 145 -340
162 -395 216 -85 86 -121 215 -95 345 30 156 145 254 349 297 96 20 340 12
449 -15z m3924 -996 c45 -7 104 -56 123 -102 8 -18 14 -62 14 -98 0 -135 -73
-205 -212 -205 -113 1 -186 54 -207 149 -21 97 12 196 77 234 31 18 119 36
152 30 8 -1 32 -5 53 -8z"/>
<path d="M4816 3606 c-59 -22 -88 -47 -118 -102 -35 -64 -48 -143 -48 -290 1
-277 70 -396 240 -411 132 -12 227 70 264 227 19 77 21 272 5 353 -18 86 -67
166 -124 202 -57 35 -154 45 -219 21z"/>
</g>
</svg>
