<svg version="1.0" xmlns="http://www.w3.org/2000/svg" width="933.333" height="933.333" viewBox="0 0 700 700"><path d="M328 .6c-1.9.2-8.4.9-14.5 1.4-57.8 5.6-118 28.3-166 62.5-23.7 16.9-53.1 44.6-70.9 67C35 183.6 9.3 246.2 1.8 313.5c-1.7 15.5-1.7 57.5 0 73 5.2 46.9 19.8 93.1 41.8 132.7 29 52.3 73.1 98.3 123.9 129.4 43.9 26.9 92 43.2 146 49.6 14.5 1.7 57.6 1.7 73 0 82.2-9.1 155.6-44.7 213.1-103.4 20.3-20.6 34.8-39 48.7-61.8 27.4-44.9 43.3-91.6 49.9-146.5 1.6-13.6 1.6-59.2 0-73C689.6 241 663 178.8 617.9 125c-12.2-14.5-35.1-37-49.4-48.4-51-40.7-111.7-66.1-177.5-74.2C379.3.9 335.7-.3 328 .6zm-20.1 314.2-.4 57.8 7.6-9.8c4.1-5.3 16.4-19.4 27.3-31.2l19.8-21.6h20.4c11.2 0 20.4.4 20.4.9s-11.9 13.8-26.5 29.7c-14.5 15.9-26.3 29.4-26 30.1.2.6 12.7 17.7 27.7 38 15.1 20.2 27.8 37.4 28.2 38 .6 1-3.8 1.3-20.8 1.3h-21.4L345 421c-10.5-14.8-19.5-27.2-20.1-27.6-.9-.5-14.4 9.5-16.1 12-.4.6-.8 10.4-.8 21.8V448h-37V257h37.2l-.3 57.8zm157-33.6c0 13.4-.4 29.2-.8 35.3-.5 6-.7 11.2-.5 11.3.1.2 3.1-2.5 6.6-6.1 3.5-3.5 8.2-7.4 10.5-8.6 13.8-7 33-6.7 46.5.6 6.6 3.6 15.6 13.5 19.5 21.4 12.9 26.4 11.6 70.6-2.8 93-1.6 2.6-5.3 6.9-8.3 9.7-9.3 8.8-18.4 12.2-33.2 12.2-14.3 0-23.1-3.2-32.8-12-3-2.9-6.1-5-6.7-4.8-.6.2-2.4 3.5-3.9 7.3l-2.8 7-14.6.3-14.6.3V257h38l-.1 24.2zm-247 29.7c6.7 1.7 20.5 6.5 21.9 7.6.2.2-2.2 6.3-5.3 13.7l-5.6 13.5-10.1-3.8c-12.9-4.9-19.6-6.2-29.6-5.8-10 .5-13.5 2.6-14 8.4-.5 6.3 4.9 10.2 26.5 19.1 27.2 11.2 36.4 19.8 39.3 36.7 2.4 13.4-2 27.7-11.1 36.2-10.3 9.7-24.1 13.5-48.1 13.5-16.2-.1-26.7-1.5-37.3-5l-6.5-2.2v-15.4c0-8.5.1-15.4.3-15.4.2 0 3.1 1.1 6.5 2.5 12.6 5.1 25.8 7.9 38.2 7.9 13.5.1 18.3-1.5 20.6-7 3.2-7.6-1.2-12.9-16.5-20.2-31-14.5-34-16.2-39.5-21.6-8.5-8.6-12.1-21.5-9.5-34.5 3-15.6 14.5-25.4 34.9-29.7 9.6-2 34-1.2 44.9 1.5zm392.4 99.6c4.5.7 10.4 5.6 12.3 10.2.8 1.8 1.4 6.2 1.4 9.8 0 13.5-7.3 20.5-21.2 20.5-11.3-.1-18.6-5.4-20.7-14.9-2.1-9.7 1.2-19.6 7.7-23.4 3.1-1.8 11.9-3.6 15.2-3 .8.1 3.2.5 5.3.8z"/><path d="M481.6 339.4c-5.9 2.2-8.8 4.7-11.8 10.2-3.5 6.4-4.8 14.3-4.8 29 .1 27.7 7 39.6 24 41.1 13.2 1.2 22.7-7 26.4-22.7 1.9-7.7 2.1-27.2.5-35.3-1.8-8.6-6.7-16.6-12.4-20.2-5.7-3.5-15.4-4.5-21.9-2.1z"/></svg>